<svg width="72" height="23" viewBox="0 0 72 23" fill="none" xmlns="http://www.w3.org/2000/svg">
<path d="M15.2721 5.19204C15.3681 5.14404 15.4401 5.02404 15.4881 4.95204C15.5841 4.78404 15.6801 4.61604 15.7521 4.44804C15.9441 4.01604 16.1121 3.58404 16.2561 3.15204C16.3761 2.79204 16.4961 2.38404 16.4001 2.00004C16.3041 1.64004 16.1361 1.30404 15.8241 1.06404C15.2481 0.560041 14.3841 0.60804 13.7121 0.80004C12.8961 1.01604 12.1281 1.42404 11.4081 1.85604C10.1841 2.60004 9.03209 3.46404 7.97609 4.40004C6.60809 5.62404 5.33609 6.96804 4.18409 8.38404C2.86409 10.04 1.66409 11.864 1.01609 13.904C0.704092 14.816 0.536092 15.8 0.608092 16.76C0.632092 17.264 0.728092 17.792 1.08809 18.2C1.78409 18.968 2.96009 18.848 3.84809 18.56C5.12009 18.152 6.29609 17.456 7.40009 16.736C8.72009 15.896 9.99209 14.984 11.2641 14.048C12.3681 13.232 13.4721 12.368 14.5761 11.576C14.9121 11.312 15.2481 11.072 15.6081 10.856C15.7281 10.784 15.8721 10.712 15.9921 10.616C16.0401 10.592 16.0881 10.568 16.1601 10.52C16.2081 10.496 16.3041 10.472 16.3281 10.424C16.2801 10.448 16.2561 10.472 16.2081 10.496C16.2321 10.496 16.2321 10.472 16.2561 10.472C16.4001 10.424 16.4721 10.28 16.3521 10.136C16.2321 10.016 15.9921 9.92004 15.8241 9.99204H15.8001C15.8481 9.99204 15.9201 9.99204 15.9681 9.99204C15.7521 9.96804 15.5361 10.088 15.3441 10.184C15.1761 10.256 15.0081 10.376 14.8641 10.472C14.4081 10.76 14.0001 11.072 13.5681 11.384C12.4161 12.248 11.2881 13.112 10.1121 13.976C8.86409 14.888 7.59209 15.8 6.27209 16.616C5.67209 16.976 5.07209 17.312 4.47209 17.6C4.32809 17.672 4.18409 17.72 4.04009 17.792C4.04009 17.792 4.01609 17.792 3.99209 17.816C3.94409 17.84 4.06409 17.768 4.01609 17.792C3.96809 17.816 3.94409 17.84 3.92009 17.84C3.84809 17.864 3.77609 17.888 3.70409 17.912C3.46409 18.008 3.22409 18.08 2.96009 18.152C2.91209 18.152 2.84009 18.176 2.79209 18.176C2.76809 18.2 2.64809 18.2 2.79209 18.176C2.76809 18.2 2.72009 18.2 2.69609 18.2C2.60009 18.224 2.48009 18.224 2.38409 18.224C2.36009 18.224 2.33609 18.224 2.31209 18.224C2.21609 18.224 2.40809 18.224 2.33609 18.224C2.28809 18.224 2.24009 18.224 2.16809 18.224C2.12009 18.2 1.95209 18.176 2.14409 18.2C2.09609 18.2 2.04809 18.2 2.02409 18.176C2.00009 18.176 1.97609 18.152 1.95209 18.152C1.88009 18.128 2.07209 18.2 2.00009 18.176C1.95209 18.152 1.90409 18.128 1.88009 18.104C1.78409 18.056 1.95209 18.176 1.90409 18.128C1.88009 18.104 1.88009 18.104 1.85609 18.104C1.80809 18.056 1.68809 17.96 1.80809 18.056C1.78409 18.032 1.76009 18.008 1.73609 17.984C1.71209 17.936 1.61609 17.816 1.68809 17.912C1.64009 17.84 1.59209 17.768 1.54409 17.672C1.54409 17.624 1.52009 17.576 1.49609 17.528C1.49609 17.48 1.52009 17.6 1.52009 17.552C1.52009 17.528 1.49609 17.528 1.49609 17.504C1.49609 17.48 1.49609 17.456 1.47209 17.432C1.44809 17.264 1.42409 17.12 1.42409 16.952C1.40009 16.736 1.40009 16.496 1.40009 16.28C1.40009 16.016 1.42409 15.848 1.44809 15.608C1.59209 14.624 1.90409 13.664 2.33609 12.776C3.20009 10.88 4.52009 9.12804 5.91209 7.56804C6.53609 6.84804 7.18409 6.17604 7.85609 5.52804C8.12009 5.26404 8.40809 5.00004 8.69609 4.76004C8.81609 4.64004 8.93609 4.54404 9.05609 4.44804C9.10409 4.40004 9.15209 4.35204 9.22409 4.30404C9.24809 4.28004 9.27209 4.25604 9.29609 4.23204C9.22409 4.30404 9.32009 4.23204 9.34409 4.20804C10.5201 3.24804 11.7921 2.31204 13.1841 1.68804C13.2561 1.64004 13.3521 1.59204 13.4481 1.54404C13.5201 1.52004 13.3761 1.59204 13.4721 1.54404C13.4961 1.54404 13.5201 1.52004 13.5201 1.52004C13.5921 1.49604 13.6401 1.47204 13.6881 1.47204C13.8561 1.40004 14.0481 1.35204 14.2161 1.30404C14.3121 1.28004 14.3841 1.25604 14.4801 1.23204C14.5521 1.23204 14.3841 1.25604 14.4561 1.23204C14.4801 1.23204 14.5041 1.23204 14.5281 1.23204C14.5761 1.23204 14.6001 1.23204 14.6481 1.23204C14.7201 1.20804 14.8161 1.20804 14.8881 1.20804C14.7441 1.20804 14.8641 1.20804 14.9121 1.20804C14.9361 1.23204 14.9841 1.23204 15.0321 1.23204C15.1521 1.25604 14.9361 1.20804 15.0321 1.23204C15.0801 1.23204 15.1041 1.25604 15.1281 1.25604C15.1521 1.25604 15.1521 1.28004 15.1761 1.28004C15.2481 1.30404 15.0801 1.23204 15.1281 1.25604C15.1761 1.28004 15.2001 1.30404 15.2481 1.30404C15.3201 1.35204 15.1521 1.25604 15.2481 1.32804C15.2721 1.35204 15.2961 1.35204 15.3201 1.37604C15.3921 1.44804 15.2721 1.32804 15.3441 1.40004C15.3681 1.42404 15.3921 1.44804 15.4161 1.49604C15.4401 1.49604 15.4401 1.52004 15.4641 1.54404C15.4881 1.59204 15.4161 1.47204 15.4401 1.52004C15.4641 1.54404 15.4881 1.59204 15.5121 1.61604C15.5361 1.68804 15.5841 1.78404 15.6081 1.85604C15.6081 1.88004 15.6321 1.95204 15.6081 1.88004C15.6081 1.90404 15.6081 1.90404 15.6321 1.92804C15.6321 1.97604 15.6561 2.02404 15.6561 2.07204C15.6561 2.09604 15.6561 2.14404 15.6561 2.16804C15.6561 2.19204 15.6561 2.21604 15.6561 2.21604C15.6561 2.26404 15.6561 2.16804 15.6561 2.26404C15.5841 2.79204 15.3681 3.32004 15.1761 3.82404C15.0801 4.06404 14.9601 4.28004 14.8401 4.52004C14.8161 4.56804 14.8641 4.47204 14.8401 4.52004C14.8161 4.54404 14.8161 4.56804 14.7921 4.56804C14.7921 4.61604 14.7681 4.64004 14.7441 4.68804C14.7201 4.71204 14.6961 4.73604 14.6721 4.76004C14.6241 4.80804 14.7441 4.73604 14.6961 4.76004C14.5281 4.83204 14.6001 5.02404 14.7201 5.12004C14.8641 5.24004 15.1041 5.28804 15.2721 5.19204Z" fill="#F77F99"/>
<path d="M22.9446 10.28C22.8246 10.208 22.6326 10.184 22.4646 10.28C21.4566 11.168 20.4966 12.056 19.3206 12.68C18.8166 12.944 18.4086 13.184 17.9286 13.328C17.3526 13.496 16.9926 13.112 17.1606 12.68L17.2326 12.44C17.3046 12.176 17.4486 11.864 17.5926 11.576C17.6406 11.456 17.7366 11.336 17.8086 11.216C18.2646 10.52 18.3606 10.496 18.5526 10.256C18.5766 10.208 18.6246 10.184 18.6486 10.136C18.6966 10.088 18.7686 9.99204 18.7686 9.94404V9.92004C18.7686 9.65604 18.2166 9.48804 18.0486 9.68004C17.9046 9.89604 17.6886 10.088 17.5206 10.304L17.4966 10.328L16.7526 11L15.3606 12.488C15.1446 12.728 14.9046 12.968 14.6406 13.184C14.4486 13.376 14.2566 13.496 13.9926 13.64C13.9686 13.664 13.9446 13.664 13.9206 13.664C13.8486 13.472 13.8966 13.256 13.9686 13.064C14.1126 12.608 14.4246 12.248 14.7126 11.912C15.0006 11.552 15.3606 11.24 15.6486 11C15.9846 10.76 16.3446 10.544 16.7286 10.376C16.6806 10.4 16.8006 10.352 16.8246 10.352C16.8486 10.328 16.8966 10.352 16.9206 10.328C16.9206 10.328 16.9206 10.328 16.9446 10.328C16.9926 10.352 17.0166 10.376 17.0646 10.376C17.2086 10.448 17.4006 10.448 17.4726 10.28C17.5926 10.016 17.2806 9.84804 17.0646 9.77604C16.8726 9.75204 16.6326 9.80004 16.4646 9.84804C15.9606 10.016 15.5526 10.208 15.1926 10.472C14.6886 10.832 14.2566 11.264 13.8726 11.744C13.5366 12.2 13.1766 12.68 13.1526 13.28C13.1526 13.544 13.2486 13.832 13.4646 14C13.7766 14.216 14.1126 14.216 14.4006 14.096C14.6646 14 14.8806 13.88 15.0726 13.712C15.3126 13.544 15.5286 13.256 15.7686 13.04C16.0326 12.8 16.2726 12.584 16.4886 12.32C16.3926 12.656 16.3446 13.04 16.5366 13.328C16.8486 13.856 17.5926 13.928 18.1686 13.856C18.5286 13.784 18.8646 13.64 19.8246 13.112C20.1366 12.944 20.3286 12.8 20.7366 12.536C21.6246 11.96 22.3446 11.312 23.1366 10.616C23.2566 10.52 23.0646 10.328 22.9446 10.28Z" fill="#F77F99"/>
<path d="M29.8558 10.136C29.7358 10.04 29.4478 9.94404 29.3038 10.064C27.6238 11.384 25.7278 12.632 23.7838 13.568C23.3998 13.76 23.0638 13.88 22.7278 13.976C22.4638 14.048 22.0558 14.216 22.0558 13.784C22.0558 13.784 22.0558 13.784 22.0558 13.76C22.0798 13.496 22.1518 13.28 22.2238 13.064C22.5838 12.008 23.1118 11.024 23.6158 10.04C24.0478 9.24804 24.5278 8.43204 24.9598 7.64004H27.0238C27.0718 7.64004 27.1198 7.64004 27.1678 7.64004C27.1678 7.71204 27.1918 7.76004 27.2398 7.80804C27.3598 7.95204 27.5758 8.00004 27.7678 7.97604C28.1998 7.90404 28.5838 7.76004 28.9918 7.68804C29.1358 7.66404 29.2078 7.52004 29.1598 7.40004C29.0878 7.25604 28.8958 7.16004 28.7518 7.13604C28.1278 7.06404 27.4798 7.08804 26.8558 7.08804C26.3278 7.08804 25.7998 7.06404 25.2958 7.06404C25.2958 7.06404 25.3198 7.04004 25.3198 7.01604C25.4638 6.80004 25.5838 6.58404 25.7038 6.34404L25.8478 6.05604C25.9198 5.93604 26.0398 5.79204 26.1118 5.64804C26.4718 5.09604 26.8078 4.49604 27.2398 3.96804C27.2878 3.87204 27.2878 3.77604 27.2158 3.70404C27.1438 3.60804 26.9998 3.56004 26.8558 3.56004C26.7118 3.58404 26.6398 3.60804 26.5678 3.70404L26.3998 3.89604L26.0638 4.32804L25.4878 5.19204C25.3198 5.45604 25.1518 5.72004 25.0078 5.98404L24.8638 6.24804C24.7918 6.36804 24.7198 6.48804 24.6718 6.60804C24.5758 6.77604 24.4798 6.92004 24.4078 7.06404C24.0958 7.08804 23.7838 7.08804 23.4718 7.08804H19.3678C14.3998 7.13604 13.9918 7.13604 13.6078 7.13604C12.8158 7.13604 12.0478 7.13604 11.2798 7.16004H11.2078C11.2078 7.16004 11.2078 7.16004 11.1838 7.16004C11.2078 7.16004 11.2078 7.16004 11.2318 7.16004C11.1598 7.16004 11.0638 7.16004 11.0158 7.20804C10.9678 7.25604 10.8958 7.32804 10.9198 7.40004C11.0158 7.76004 11.4238 7.73604 11.7118 7.71204H11.8078H12.5518C13.5598 7.71204 14.5438 7.68804 15.5278 7.68804C16.8478 7.68804 18.1678 7.66404 19.4878 7.66404C20.8558 7.64004 22.2238 7.64004 23.6158 7.64004H24.0718C23.6638 8.31204 23.2798 8.98404 22.9198 9.68004C22.3678 10.664 21.8398 11.648 21.4798 12.704C21.3598 13.04 21.2158 13.424 21.2398 13.784C21.2638 14.096 21.4558 14.336 21.7198 14.48C22.3438 14.816 23.1598 14.552 23.7838 14.312C24.7198 13.928 25.5838 13.424 26.4478 12.896C27.0718 12.512 27.6478 12.152 28.2238 11.744C28.7758 11.336 29.4478 10.928 29.9518 10.472C30.0718 10.376 29.9518 10.208 29.8558 10.136Z" fill="#F77F99"/>
<path d="M29.1681 12.272C29.5761 12.128 30.0081 11.864 30.3441 11.624C30.7041 11.36 31.0161 11.072 31.2561 10.736C31.4961 10.4 31.7121 9.92004 31.3281 9.60804C30.8721 9.27204 30.2481 9.51204 29.8641 9.75204C29.4081 10.016 29.0001 10.352 28.6881 10.664C28.3281 11 27.9441 11.456 27.6801 11.864C27.4641 12.224 27.2241 12.728 27.3201 13.16C27.4641 13.616 27.9201 13.88 28.3761 13.928C28.7601 13.952 29.1681 13.904 29.5281 13.808C30.2001 13.64 30.9921 13.256 31.6161 12.92C32.5281 12.44 33.3441 11.888 34.0401 11.408L34.8081 10.88L34.9041 10.808L35.2161 10.568C35.2401 10.544 35.2881 10.496 35.2881 10.496L35.3361 10.424C35.3601 10.352 35.3601 10.328 35.3361 10.256L35.3121 10.232L35.2641 10.184C35.1921 10.136 35.2401 10.136 35.1201 10.112C35.1201 10.112 35.0241 10.088 35.0481 10.088H35.0241C34.9521 10.088 34.9041 10.088 34.8561 10.112C34.6881 10.16 34.5201 10.28 34.4001 10.352C34.1601 10.544 33.8241 10.736 33.5601 10.928C32.2641 11.816 31.1841 12.512 30.0081 13.04C29.5041 13.256 29.0961 13.4 28.5201 13.448H28.3041C28.2561 13.448 28.2081 13.424 28.1601 13.4C27.9921 13.256 28.0161 13.088 28.0161 12.92L28.0401 12.824C28.0401 12.8 28.0641 12.776 28.0641 12.752C28.0641 12.728 28.0641 12.704 28.0881 12.68C28.1121 12.56 28.1601 12.464 28.2081 12.368C28.2321 12.344 28.2321 12.344 28.2561 12.32C28.5441 12.44 28.9281 12.392 29.1681 12.272ZM28.4961 11.912L28.6161 11.744C28.9281 11.336 29.3121 10.976 29.6961 10.64C29.6961 10.64 29.7921 10.568 29.8161 10.544C29.9361 10.448 30.0321 10.352 30.1761 10.256C30.4161 10.088 30.6321 9.96804 30.8481 9.92004C30.8721 10.088 30.7761 10.256 30.7761 10.256C29.9841 11.456 28.4001 12.056 28.4961 11.912Z" fill="#F77F99"/>
<path d="M54.5747 14.936C53.9027 14.72 53.1827 14.648 52.4867 14.576C50.9267 14.384 49.3427 14.36 47.7587 14.456C46.3427 14.528 44.9267 14.648 43.5347 14.816C42.1187 15.008 40.7267 15.248 39.3347 15.512C37.8467 15.8 36.3587 16.136 34.8947 16.496C35.0147 16.28 35.1107 16.064 35.2307 15.848C35.5667 15.176 35.9027 14.456 36.2387 13.784C36.3347 13.568 36.4547 13.352 36.5747 13.136C36.6467 13.016 36.7187 12.872 36.7907 12.752C36.7907 12.704 36.8147 12.68 36.8387 12.656C36.8387 12.632 36.8387 12.608 36.8627 12.608C36.8147 12.656 36.8387 12.608 36.8627 12.608C36.8867 12.536 36.9347 12.488 36.9587 12.416C37.1507 12.08 37.3427 11.768 37.5347 11.456C37.6547 11.264 37.7507 11.096 37.8707 10.904C37.9427 10.784 38.0147 10.664 38.0867 10.52C38.2307 10.376 38.3747 10.256 38.5187 10.112C38.6147 9.99204 38.5187 9.84804 38.4227 9.77604C38.3027 9.68004 38.1347 9.65604 37.9667 9.68004C37.7027 9.75204 37.5587 9.94404 37.4387 10.16C37.1747 10.424 36.9107 10.664 36.6707 10.928C36.4307 11.216 36.1667 11.528 35.9027 11.816C35.5907 12.176 35.2787 12.512 34.9427 12.848C34.8707 12.92 34.7747 13.016 34.7027 13.088C34.6547 13.112 34.6307 13.16 34.5827 13.184C34.5587 13.208 34.5347 13.232 34.5107 13.232L34.4627 13.28C34.3187 13.4 34.1747 13.496 34.0067 13.592C33.9347 13.664 33.6707 13.784 33.6707 13.64C33.6707 13.64 33.6467 13.592 33.6467 13.568C33.6467 13.52 33.6467 13.472 33.6467 13.4C33.6467 13.424 33.6467 13.352 33.6707 13.328C33.6707 13.28 33.6707 13.232 33.6947 13.208C33.7187 13.016 33.7907 12.872 33.8627 12.704C33.9107 12.608 33.9347 12.536 33.9827 12.44C34.0067 12.392 34.0307 12.368 34.0547 12.32C34.0547 12.32 34.0547 12.32 34.0547 12.296H34.0787C34.0787 12.272 34.1027 12.224 34.1267 12.2C34.3187 11.864 34.5587 11.528 34.7987 11.192C34.9187 11 35.0627 10.832 35.2307 10.64C35.2787 10.592 35.3507 10.52 35.3987 10.448C35.4467 10.4 35.4947 10.352 35.5667 10.304C35.5907 10.28 35.6147 10.256 35.6387 10.232C35.6627 10.208 35.7107 10.16 35.7107 10.16C35.8067 10.088 35.9027 10.016 36.0227 9.94404C36.0227 9.96804 36.0227 9.96804 36.0227 9.96804C36.0227 10.088 36.0227 10.184 36.0467 10.304C36.0467 10.4 36.1667 10.472 36.2627 10.52C36.3347 10.544 36.5027 10.544 36.5747 10.472C36.6467 10.328 36.6947 10.232 36.7187 10.088C36.7427 9.96804 36.7187 9.84804 36.6947 9.72804C36.6227 9.51204 36.3587 9.36804 36.1427 9.34404C35.7107 9.29604 35.3267 9.58404 35.0147 9.84804C34.5107 10.28 34.1027 10.832 33.7427 11.384C33.5027 11.744 33.2867 12.104 33.1187 12.488C32.9747 12.8 32.8547 13.136 32.8787 13.472C32.9267 13.856 33.2387 14.12 33.5987 14.192C34.0067 14.312 34.3667 14.192 34.7027 13.976C35.0627 13.736 35.3747 13.448 35.6867 13.136C35.7347 13.112 35.7587 13.064 35.8067 13.016C35.7827 13.04 35.7827 13.064 35.7587 13.112C35.5667 13.448 35.3987 13.808 35.2067 14.168C34.6787 15.2 34.4147 15.656 34.1747 16.16V16.184C34.0787 16.376 33.9587 16.568 33.8627 16.76C33.5987 16.832 33.3347 16.904 33.0707 16.976C32.0627 17.288 31.0547 17.696 30.2147 18.344C29.7827 18.68 29.4227 19.04 29.1347 19.472C28.8227 19.904 28.5587 20.432 28.4627 20.96C28.3907 21.464 28.5347 21.968 28.9427 22.256C29.4227 22.616 30.0947 22.616 30.6227 22.4C31.3667 22.112 31.8707 21.512 32.3267 20.888C32.8547 20.168 33.3107 19.376 33.7667 18.608C33.9827 18.2 34.2227 17.792 34.4387 17.36C34.4387 17.36 34.4627 17.336 34.4627 17.312C34.4867 17.288 34.4867 17.288 34.4867 17.264C34.5107 17.264 34.5347 17.264 34.5587 17.24C37.3667 16.544 40.2227 15.92 43.0547 15.512C43.7507 15.416 44.4467 15.32 45.1667 15.248C45.8387 15.176 46.5107 15.128 47.1827 15.08C48.7427 14.96 50.2787 14.96 51.8147 15.08C52.7267 15.128 53.5187 15.248 54.3827 15.44C54.4547 15.464 54.5507 15.488 54.6227 15.512C54.6707 15.536 54.6947 15.536 54.7427 15.56C54.7667 15.56 54.7667 15.56 54.7667 15.584C54.7907 15.584 54.8147 15.584 54.8387 15.608C54.9107 15.632 54.9827 15.68 55.0547 15.728C55.0547 15.728 55.0547 15.728 55.0787 15.728C55.0787 15.728 55.0787 15.728 55.1027 15.752C55.0547 15.728 55.1507 15.8 55.1507 15.824H55.1747C55.1747 15.848 55.1747 15.848 55.1747 15.848C55.1987 15.872 55.1987 15.896 55.1987 15.92C55.2227 16.016 55.2227 16.088 55.1987 16.184C55.1027 16.544 55.9187 16.784 56.0387 16.424C56.2787 15.56 55.2467 15.128 54.5747 14.936ZM29.6627 22.016H29.6387C29.6147 22.016 29.5907 22.016 29.5907 22.016C29.5667 21.992 29.5667 21.992 29.5667 21.992C29.5427 21.992 29.5427 21.992 29.5187 21.992C29.4707 21.968 29.4467 21.944 29.4227 21.92C29.4227 21.92 29.3987 21.896 29.3747 21.872C29.3747 21.872 29.3507 21.848 29.3507 21.824C29.3507 21.824 29.3507 21.824 29.3267 21.824C29.3027 21.776 29.3027 21.728 29.2787 21.68C29.2787 21.68 29.2547 21.656 29.2547 21.632C29.2547 21.632 29.2547 21.608 29.2547 21.584C29.2307 21.536 29.2307 21.464 29.2307 21.416C29.2067 20.96 29.4707 20.408 29.7107 20.024C30.2627 19.136 31.0547 18.536 31.9667 18.08C32.4467 17.84 32.8787 17.672 33.4067 17.528C33.4307 17.504 33.4547 17.504 33.4787 17.504C33.2387 17.912 33.0227 18.32 32.7827 18.728C32.3507 19.472 31.8947 20.192 31.3667 20.864C31.1747 21.104 30.9827 21.344 30.7427 21.536C30.7427 21.536 30.7427 21.536 30.7427 21.56H30.7187C30.6947 21.584 30.6707 21.584 30.6467 21.608C30.5267 21.704 30.3587 21.8 30.2147 21.872C30.1427 21.92 30.1187 21.92 30.0467 21.944C29.9987 21.968 29.9267 21.992 29.8787 21.992C29.8547 21.992 29.8307 21.992 29.8067 22.016C29.7827 22.016 29.7827 22.016 29.7587 22.016C29.7347 22.016 29.6867 22.016 29.6627 22.016Z" fill="#F77F99"/>
<path d="M45.5213 9.89604C45.3293 10.04 45.1133 10.136 44.8973 10.256L44.1773 10.592C43.6253 10.808 43.0733 11 42.4973 11.12H42.4493V11.096C42.5933 10.736 42.6893 10.352 42.4493 10.016C42.2573 9.72804 41.8733 9.63204 41.5613 9.80004C41.3693 9.92004 41.2013 10.136 41.1293 10.352C41.0573 10.496 41.0573 10.688 41.0573 10.832C41.0573 11.048 41.1053 11.264 41.2493 11.432C41.2733 11.456 41.2973 11.48 41.3213 11.504C41.2733 11.576 41.2013 11.648 41.1293 11.744C40.8893 12.08 40.6013 12.392 40.3373 12.704C40.0253 13.016 39.7613 13.28 39.3773 13.472L39.2573 13.544C39.3293 13.496 39.2093 13.568 39.1853 13.568C39.1373 13.568 39.1133 13.592 39.0653 13.592C38.9933 13.592 38.8733 13.592 38.8733 13.472V13.376V13.304V13.28C38.8733 13.16 38.9213 13.04 38.9453 12.944C39.0893 12.392 39.4013 11.888 39.7373 11.456C40.0733 11.024 40.4333 10.64 40.8413 10.304C41.0573 10.304 41.1533 10.04 40.9613 9.89604C40.8413 9.80004 40.6253 9.75204 40.4813 9.82404C39.9053 10.16 39.4253 10.64 39.0173 11.168C38.6573 11.672 38.3213 12.248 38.1773 12.872C38.1293 13.064 38.1053 13.28 38.1533 13.472C38.2013 13.712 38.3453 13.88 38.5373 14C38.9453 14.24 39.4253 14.144 39.8333 13.976C40.2653 13.808 40.6253 13.472 40.9373 13.136C41.2013 12.848 41.4413 12.56 41.6813 12.248C41.8253 12.08 41.9453 11.912 42.0653 11.744C42.3533 11.72 42.6653 11.648 42.8813 11.624C43.4573 11.504 44.0093 11.312 44.5373 11.096C45.0653 10.88 45.5933 10.64 46.0253 10.28C46.3133 10.04 45.7373 9.75204 45.5213 9.89604ZM41.8253 10.16C41.8253 10.16 41.8253 10.16 41.8013 10.16H41.8253Z" fill="#F77F99"/>
<path d="M45.4416 9.99204C45.2016 10.184 44.9616 10.664 44.7936 11.072L44.2896 11.984L44.1456 12.272C43.9296 12.68 43.8816 12.728 43.4256 13.424L43.1376 13.856C43.0896 13.952 43.2336 14.168 43.3536 14.216C43.4496 14.24 43.7376 14.312 43.7856 14.216C43.8096 14.192 43.8336 14.144 43.8576 14.096C44.0256 13.856 44.0736 13.784 44.1936 13.568L44.7456 12.944L45.2976 12.44L45.8976 11.864L46.3296 11.528L46.9056 11.192L47.1696 11.024L47.6256 10.76L47.8656 10.64C48.0816 10.52 48.3216 10.4 48.5856 10.28L48.8016 10.208C48.8496 10.184 48.8496 10.184 48.8736 10.184C49.1136 10.112 49.2096 10.112 49.2576 10.112C49.4496 10.184 49.8096 10.256 49.9056 10.064C49.9776 9.75204 49.6896 9.60804 49.4736 9.56004C49.4256 9.53604 49.2576 9.53604 49.1136 9.53604C48.9456 9.56004 48.9216 9.56004 48.9216 9.56004C48.5856 9.60804 48.2256 9.72804 47.8896 9.87204L47.6736 9.96804L47.5296 10.04C46.7616 10.448 46.0656 10.928 45.4416 11.36C45.6576 11.024 46.1616 10.136 45.9696 10.088C45.9216 10.064 45.8976 10.04 45.8976 10.04C45.7536 9.99204 45.5616 9.94404 45.4416 9.99204Z" fill="#F77F99"/>
<path d="M69.9771 15.2C69.3051 14.984 68.5851 14.912 67.8891 14.84C66.3051 14.648 64.7211 14.624 63.1611 14.72C61.7451 14.792 60.3291 14.912 58.9131 15.08C57.4971 15.272 56.1051 15.512 54.7131 15.776C53.2251 16.064 51.7611 16.4 50.2731 16.76C50.3931 16.544 50.5131 16.328 50.6091 16.112C51.0891 15.176 51.5451 14.216 52.0011 13.28C52.0491 13.208 52.0731 13.16 52.1211 13.088C52.4571 12.536 52.7931 11.96 53.1291 11.408C53.2971 11.12 53.4891 10.856 53.6331 10.568C53.6811 10.52 53.7051 10.472 53.7291 10.4C53.8731 10.256 54.0171 10.136 54.1611 9.99204C54.2571 9.89604 54.1611 9.75204 54.0651 9.68004C53.9451 9.58404 53.7771 9.56004 53.6331 9.58404C53.3691 9.63204 53.2251 9.84804 53.0811 10.064C52.8411 10.304 52.5771 10.568 52.3371 10.832C52.0731 11.12 51.8331 11.408 51.5691 11.72C51.2571 12.056 50.9451 12.416 50.6091 12.752C50.4411 12.92 50.2971 13.064 50.1531 13.184C49.6971 13.664 49.2891 13.616 49.2891 13.616C49.2651 13.496 49.2651 13.376 49.2651 13.256C49.2651 13.232 49.2651 13.232 49.2651 13.208C49.2651 13.208 49.2651 13.208 49.2651 13.184C49.2651 13.136 49.2891 13.064 49.3131 13.016C49.3611 12.848 49.4331 12.704 49.4811 12.56C49.7451 12.032 49.9851 11.576 50.2491 11.12C50.3691 10.904 50.5131 10.664 50.6331 10.448C50.6811 10.352 50.7531 10.232 50.8011 10.112C50.8971 9.77604 50.1051 9.53604 50.0091 9.87204C49.9851 9.94404 49.9371 10.016 49.9131 10.088C49.8891 10.112 49.8651 10.136 49.8651 10.16C49.8411 10.184 49.8411 10.208 49.8411 10.208C49.7931 10.28 49.7451 10.352 49.7211 10.424C49.5051 10.808 49.2891 11.168 49.0971 11.528C48.9051 11.888 48.7371 12.224 48.5691 12.584C48.4491 12.896 48.4251 13.16 48.4731 13.496C48.5451 13.904 48.8091 14.168 49.2171 14.264C49.5531 14.312 49.9131 14.168 50.2011 14.024C50.4891 13.856 50.7531 13.664 51.0171 13.472C50.8731 13.808 50.7051 14.12 50.5611 14.456C50.2011 15.104 49.8651 15.752 49.5771 16.424C49.5531 16.424 49.5531 16.448 49.5531 16.448C49.4571 16.64 49.3611 16.832 49.2651 17.024C48.9771 17.096 48.7131 17.168 48.4491 17.24C47.4411 17.552 46.4331 17.96 45.5931 18.608C45.1851 18.944 44.8251 19.304 44.5131 19.736C44.2251 20.168 43.9371 20.696 43.8651 21.224C43.7691 21.728 43.9371 22.232 44.3451 22.52C44.8251 22.88 45.4731 22.88 46.0011 22.664C46.7451 22.376 47.2491 21.776 47.7291 21.152C48.2571 20.432 48.7131 19.64 49.1451 18.872C49.4091 18.416 49.6491 17.984 49.8891 17.528C49.9131 17.528 49.9371 17.528 49.9611 17.504C52.7691 16.808 55.6251 16.184 58.4331 15.776C59.1531 15.68 59.8491 15.584 60.5451 15.512C61.2171 15.44 61.9131 15.392 62.5851 15.344C64.1451 15.224 65.6811 15.224 67.1931 15.344C67.9611 15.392 68.7291 15.488 69.4971 15.632C69.4971 15.632 69.4971 15.632 69.5211 15.632C69.5211 15.656 69.7371 15.68 69.7611 15.704C69.8571 15.728 69.9291 15.752 70.0011 15.776C70.1691 15.848 70.2891 15.896 70.4331 15.992C70.4571 15.992 70.4571 15.992 70.4571 15.992C70.4571 15.992 70.4811 15.992 70.4811 16.016C70.4331 15.968 70.5771 16.112 70.5771 16.112C70.5771 16.136 70.6011 16.16 70.6011 16.184C70.6251 16.28 70.6251 16.352 70.6011 16.448C70.4811 16.808 71.3211 17.048 71.4171 16.688C71.6811 15.824 70.6251 15.392 69.9771 15.2ZM48.1851 18.992C47.7531 19.736 47.2971 20.456 46.7691 21.128C46.5771 21.368 46.3611 21.608 46.1451 21.8C46.1211 21.824 46.0731 21.848 46.0491 21.872C45.9051 21.968 45.7611 22.064 45.5931 22.136C45.5451 22.184 45.5211 22.184 45.4491 22.208C45.3771 22.232 45.3291 22.256 45.2571 22.256C45.2571 22.256 45.2091 22.256 45.2091 22.28C45.1851 22.28 45.1611 22.28 45.1371 22.28C45.1131 22.28 45.0891 22.28 45.0651 22.28C45.0411 22.28 45.0411 22.28 45.0171 22.28C45.0171 22.28 44.9931 22.28 44.9691 22.28C44.9691 22.256 44.9691 22.256 44.9451 22.256H44.9211C44.9211 22.256 44.8971 22.256 44.8971 22.232H44.8731L44.8491 22.208C44.8251 22.208 44.8251 22.208 44.8251 22.184C44.8251 22.184 44.7771 22.16 44.7771 22.136C44.7291 22.136 44.6811 21.968 44.6571 21.944C44.6571 21.944 44.6571 21.92 44.6571 21.896C44.6331 21.896 44.6331 21.872 44.6331 21.848C44.6331 21.8 44.6091 21.728 44.6091 21.68C44.5851 21.224 44.8731 20.672 45.0891 20.288C45.6411 19.4 46.4331 18.8 47.3691 18.344C47.8251 18.104 48.2811 17.936 48.8091 17.792C48.8331 17.768 48.8331 17.768 48.8571 17.768C48.6411 18.176 48.4011 18.584 48.1851 18.992Z" fill="#F77F99"/>
</svg>
